/* XPM */
static char * points32_xpm[] = {
"32 32 2 1",
" 	c None",
".	c #D3C37E",
"                                ",
"                                ",
"                                ",
"                                ",
"                                ",
"         ..    ...              ",
"           .  .  .              ",
"           ....  .              ",
"             .   .              ",
"                 .              ",
"           .  .  .   ..         ",
"           .  .  .  .  .        ",
"                 .. . ..        ",
"          .     .  .  .         ",
"           .        ..          ",
"           .        .           ",
"           . . .  . .           ",
"           . . .... .           ",
"           ..... ....           ",
"                                ",
"                                ",
"                                ",
"      .  . ..   ...  . .  .     ",
"      . .. .    . .  . .  .     ",
"       . . .    . .  .  .       ",
"       . . .    . .  . ..       ",
"         . ...  ...   . ..      ",
"                                ",
"                                ",
"                                ",
"                                ",
"                                "};
